<?xml version="1.0" encoding="UTF-8" standalone="no"?>
<!-- Created with Inkscape (http://www.inkscape.org/) -->

<svg
   xmlns:dc="http://purl.org/dc/elements/1.1/"
   xmlns:cc="http://creativecommons.org/ns#"
   xmlns:rdf="http://www.w3.org/1999/02/22-rdf-syntax-ns#"
   xmlns:svg="http://www.w3.org/2000/svg"
   xmlns="http://www.w3.org/2000/svg"
   xmlns:sodipodi="http://sodipodi.sourceforge.net/DTD/sodipodi-0.dtd"
   xmlns:inkscape="http://www.inkscape.org/namespaces/inkscape"
   width="360"
   height="360"
   id="svg3322"
   version="1.1"
   inkscape:version="0.48.4 r9939"
   inkscape:export-filename="/media/santiago/Leonardo_HD1TB/Pessoal/Igreja/SPM/2014/SPM Goiânia/Logo.png"
   inkscape:export-xdpi="200.1095"
   inkscape:export-ydpi="200.1095"
   sodipodi:docname="New document 6">
  <defs
     id="defs3324" />
  <sodipodi:namedview
     id="base"
     pagecolor="#ffffff"
     bordercolor="#666666"
     borderopacity="1.0"
     inkscape:pageopacity="0.0"
     inkscape:pageshadow="2"
     inkscape:zoom="0.53303572"
     inkscape:cx="334.11141"
     inkscape:cy="105.29735"
     inkscape:document-units="px"
     inkscape:current-layer="g3819"
     showgrid="false"
     inkscape:window-width="1360"
     inkscape:window-height="744"
     inkscape:window-x="1366"
     inkscape:window-y="24"
     inkscape:window-maximized="1" />
  <metadata
     id="metadata3327">
    <rdf:RDF>
      <cc:Work
         rdf:about="">
        <dc:format>image/svg+xml</dc:format>
        <dc:type
           rdf:resource="http://purl.org/dc/dcmitype/StillImage" />
        <dc:title></dc:title>
      </cc:Work>
    </rdf:RDF>
  </metadata>
  <g
     inkscape:label="Layer 1"
     inkscape:groupmode="layer"
     id="layer1"
     transform="translate(0,-692.36215)">
    <g
       transform="matrix(1.2173821,0,0,1.2173821,-74.69499,688.60451)"
       id="g3195">
      <g
         id="g3819"
         transform="matrix(0.51724922,0,0,0.51724922,-478.15886,-82.271357)">
        <g
           id="g3454">
          <rect
             transform="matrix(0,1.933304,-1.933304,0,924.42645,159.05555)"
             y="-208.74513"
             x="6.9950662"
             height="13.439457"
             width="66.450111"
             id="rect3019-7"
             style="fill:#000000;fill-rule:evenodd;stroke:#000000;stroke-width:0.52031987999999996px;stroke-linecap:butt;stroke-linejoin:miter;stroke-opacity:1" />
          <rect
             y="71.46685"
             x="121.86642"
             height="13.158461"
             width="160.9687"
             id="rect3019"
             style="fill:#000000;fill-rule:evenodd;stroke:#000000;stroke-width:0.80131810999999997px;stroke-linecap:butt;stroke-linejoin:miter;stroke-opacity:1"
             transform="matrix(1.933304,0,0,1.933304,924.42645,159.05555)" />
          <path
             transform="matrix(2.3036688,0,0,2.073302,815.18199,143.00936)"
             d="m 294.96454,153.99039 c 0,41.51342 -30.28796,75.16671 -67.65004,75.16671 -37.36209,0 -67.65004,-33.65329 -67.65004,-75.16671 0,-41.51343 30.28795,-75.166713 67.65004,-75.166713 37.36208,0 67.65004,33.653283 67.65004,75.166713 z"
             sodipodi:ry="75.16671"
             sodipodi:rx="67.65004"
             sodipodi:cy="153.99039"
             sodipodi:cx="227.3145"
             id="path3021"
             style="fill:#ffffff"
             sodipodi:type="arc" />
          <path
             sodipodi:nodetypes="cscssssccssssscscs"
             inkscape:connector-curvature="0"
             id="path3192"
             d="m 1241.0421,405.57759 c -153.8303,0.92651 -187.0693,53.7722 -187.0693,116.71687 0,90.30387 191.0259,100.49399 299.7944,211.92277 117.5868,-128.38528 249.206,-123.45378 250.4384,-213.74926 0.4333,-31.74326 9.2203,-120.34509 -165.6529,-110.78737 -26.8584,1.46795 -58.3758,67.79936 -87.6858,67.79936 -30.5077,0 -67.57,-71.41147 -94.5498,-71.8227 -5.2162,-0.0795 -10.3127,-0.10956 -15.275,-0.0797 z m 16.2901,9.67993 c 2.3087,0.0115 4.6424,0.0423 7.009,0.0797 24.4826,0.38698 58.1167,67.56034 85.8006,67.56034 26.5972,0 55.1925,-62.39461 79.5649,-63.776 158.6872,-8.99417 160.7446,61.86843 160.3114,95.35403 -1.0994,84.97212 -130.5145,89.24652 -237.2177,210.06173 -98.701,-104.85856 -272.0482,-114.4752 -272.0482,-199.45438 0,-60.18858 31.1284,-110.55043 176.58,-109.82539 z"
             style="fill:#000000;fill-opacity:1" />
          <path
             sodipodi:nodetypes="scsssss"
             inkscape:connector-curvature="0"
             id="path3221"
             d="m 411.98707,137.13071 c 0,7.80731 -2.97009,14.92091 -7.842,20.27256 -21.0051,-8.57124 -23.72937,-6.9471 -32.3537,-8.83993 -6.17762,-1.35583 -8.62412,0.84623 -10.75472,-6.29983 -0.98278,-3.29626 -8.72066,-11.87745 -7.65902,-14.95645 4.07328,-11.81354 15.28839,-20.30014 28.48565,-20.30014 16.63691,0 30.12379,13.48688 30.12379,30.12379 z"
             style="fill:#d49c00;fill-opacity:1"
             transform="matrix(1.933304,0,0,1.933304,785.68194,126.51054)" />
          <path
             style="fill:#0044aa;fill-opacity:1;stroke:#1d3d2e;stroke-width:1.29139936px;stroke-linecap:butt;stroke-linejoin:miter;stroke-opacity:0"
             d="m 1292.2786,314.05886 c 31.2492,-10.89846 63.3186,-8.73205 86.9827,-3.64236 -14.3437,1.2244 -45.7108,12.65946 -66.5676,30.01053 -7.2435,-6.05124 -13.6997,-12.92457 -20.4151,-26.36817 z"
             id="path3027"
             inkscape:connector-curvature="0"
             sodipodi:nodetypes="cccc" />
          <path
             style="fill:#0044aa;fill-opacity:1;stroke:#1d3d2e;stroke-width:1.29139936px;stroke-linecap:butt;stroke-linejoin:miter;stroke-opacity:0"
             d="m 1315.164,345.19325 c 18.4044,-16.14677 54.4937,-33.34791 68.9526,-32.8443 -5.753,18.31164 -10.5392,32.50109 -18.9722,59.16054 -17.3938,-5.79247 -28.7535,-9.65612 -49.9804,-26.31624 z"
             id="path3029"
             inkscape:connector-curvature="0"
             sodipodi:nodetypes="cccc" />
          <path
             style="fill:#0044aa;fill-opacity:1;stroke:#1d3d2e;stroke-width:1.29139936px;stroke-linecap:butt;stroke-linejoin:miter;stroke-opacity:0"
             d="m 1369.6325,372.5295 c 5.6751,-15.6844 11.8018,-34.57381 18.5642,-58.95654 18.886,15.18307 33.5872,48.07215 37.7403,63.64858 -14.5202,1.34044 -39.2505,1.58613 -56.3045,-4.69204 z"
             id="path3031"
             inkscape:connector-curvature="0"
             sodipodi:nodetypes="cccc" />
          <path
             style="fill:#0044aa;fill-opacity:1;stroke:#1d3d2e;stroke-width:1.29139936px;stroke-linecap:butt;stroke-linejoin:miter;stroke-opacity:0"
             d="m 1398.3968,317.04099 c 39.3577,16.50459 55.0146,37.05428 67.5245,51.00047 l 0,0 c -11.2697,6.24095 -25.0005,8.28472 -35.2924,9.18008 -8.0334,-32.29043 -20.3206,-45.32171 -32.2321,-60.18055 z"
             id="path3033"
             inkscape:connector-curvature="0"
             sodipodi:nodetypes="ccccc" />
          <path
             style="fill:#0055d4;fill-opacity:1;stroke:#1d3d2e;stroke-width:1.29139936px;stroke-linecap:butt;stroke-linejoin:miter;stroke-opacity:0"
             d="m 1232.5431,350.2933 c 10.9406,-10.0641 26.3906,-23.80022 56.3047,-35.08832 6.7771,17.48925 15.2869,24.74133 20.8081,29.37626 -13.2418,8.88105 -34.629,35.18565 -44.6764,56.30453 -6.4499,-5.55523 -25.3208,-27.86878 -32.4364,-50.59247 z"
             id="path3035"
             inkscape:connector-curvature="0"
             sodipodi:nodetypes="ccccc" />
          <path
             style="fill:#0055d4;fill-opacity:1;stroke:#1d3d2e;stroke-width:1.29139936px;stroke-linecap:butt;stroke-linejoin:miter;stroke-opacity:0"
             d="m 1267.2235,404.35379 c 15.8906,-27.79228 30.6146,-44.69609 44.8804,-57.32452 12.3414,13.72818 31.2337,22.54317 52.2245,29.78427 -6.0892,21.44188 -14.1297,45.81087 -21.2162,68.74864 -26.4459,-8.90756 -52.1496,-20.93174 -75.8887,-41.20839 z"
             id="path3039"
             inkscape:connector-curvature="0"
             sodipodi:nodetypes="ccccc" />
          <path
             style="fill:#0055d4;fill-opacity:1;stroke:#1d3d2e;stroke-width:1.29139936px;stroke-linecap:butt;stroke-linejoin:miter;stroke-opacity:0"
             d="m 1368.2045,377.22154 -21.0122,69.36065 c 29.0592,9.4298 79.7052,8.64791 85.8848,5.91606 1.0289,-25.29135 0.4838,-49.61394 -5.5081,-70.58466 -8.3434,1.33203 -30.026,2.8028 -59.3645,-4.69205 z"
             id="path3041"
             inkscape:connector-curvature="0"
             sodipodi:nodetypes="ccccc" />
          <path
             style="fill:#0055d4;fill-opacity:1;stroke:#1d3d2e;stroke-width:1.29139936px;stroke-linecap:butt;stroke-linejoin:miter;stroke-opacity:0"
             d="m 1431.8531,382.11759 c 26.3556,-4.19081 31.693,-8.49352 35.7003,-10.4041 14.302,16.0459 24.5367,44.0977 26.1122,67.93263 -17.5261,8.32891 -37.2783,10.53576 -56.9165,13.05613 0.066,-21.9605 1.7476,-42.43032 -4.896,-70.58466 z"
             id="path3043"
             inkscape:connector-curvature="0"
             sodipodi:nodetypes="ccccc" />
          <path
             style="fill:#0066ff;fill-opacity:1;stroke:#1d3d2e;stroke-width:1.29139936px;stroke-linecap:butt;stroke-linejoin:miter;stroke-opacity:0"
             d="m 1228.4622,354.13007 c 6.5009,23.2883 19.1531,38.37104 34.0432,52.50741 -12.4878,18.44094 -20.8855,50.87787 -25.9653,70.10603 -5.9448,-3.96917 -31.2751,-28.60916 -43.5638,-66.35551 3.9436,-10.94413 17.8241,-40.34581 35.4859,-56.25793 z"
             id="path3045"
             inkscape:connector-curvature="0"
             sodipodi:nodetypes="ccccc" />
          <path
             style="fill:#0066ff;fill-opacity:1;stroke:#1d3d2e;stroke-width:1.29139936px;stroke-linecap:butt;stroke-linejoin:miter;stroke-opacity:0"
             d="m 1265.6789,409.52249 c 22.0642,17.51679 46.054,32.25204 75.0105,39.81331 -5.2828,24.66854 -13.98,48.48346 -22.2146,72.41406 -35.9162,-10.02847 -57.8586,-25.13834 -77.0301,-41.25582 -1.0164,-7.77132 15.0295,-57.58135 24.2342,-70.97155 z"
             id="path3047"
             inkscape:connector-curvature="0"
             sodipodi:nodetypes="ccccc" />
          <path
             style="fill:#0066ff;fill-opacity:1;stroke:#1d3d2e;stroke-width:1.29139936px;stroke-linecap:butt;stroke-linejoin:miter;stroke-opacity:0"
             d="m 1345.3055,450.20131 c 40.3838,10.16738 63.4629,8.53621 87.4162,7.50106 1.4559,35.23227 -13.7617,65.13254 -15.5791,71.26005 -21.9455,6.74547 -75.87,-0.71682 -94.0517,-6.05855 6.4677,-19.75669 14.9454,-39.66004 22.2146,-72.70256 z"
             id="path3049"
             inkscape:connector-curvature="0"
             sodipodi:nodetypes="ccccc" />
          <path
             style="fill:#0066ff;fill-opacity:1;stroke:#1d3d2e;stroke-width:1.29139936px;stroke-linecap:butt;stroke-linejoin:miter;stroke-opacity:0"
             d="m 1437.0493,456.54836 c 28.2706,-1.62986 44.0434,-6.82554 57.4118,-12.98259 1.909,13.91896 -1.1479,50.98517 -11.8284,72.41404 -20.2413,7.81037 -35.3298,11.59795 -59.4665,12.71462 11.9985,-31.48374 14.7355,-49.18324 13.8831,-72.14607 z"
             id="path3051"
             inkscape:connector-curvature="0"
             sodipodi:nodetypes="ccccc" />
          <path
             style="fill:#2a7fff;fill-opacity:1;stroke:#1d3d2e;stroke-width:1.29139936px;stroke-linecap:butt;stroke-linejoin:miter;stroke-opacity:0"
             d="m 1190.9568,417.02356 c 9.4576,22.61509 20.133,44.92574 44.7178,63.75898 -3.2761,18.89824 -4.4066,42.43385 -2.3079,64.62451 -13.4797,-8.51404 -38.2587,-34.76548 -45.5833,-47.60287 -4.2192,-12.09 -5.8067,-55.83434 3.1734,-80.78062 z"
             id="path3053"
             inkscape:connector-curvature="0"
             sodipodi:nodetypes="ccccc" />
          <path
             style="fill:#2a7fff;fill-opacity:1;stroke:#1d3d2e;stroke-width:1.29139936px;stroke-linecap:butt;stroke-linejoin:miter;stroke-opacity:0"
             d="m 1240.8678,487.12959 c 22.7571,20.04084 48.5234,31.54958 75.876,40.10183 -2.301,13.5596 -14.8814,48.46836 -17.3101,53.6614 -13.5612,-4.29083 -43.11,-14.94184 -60.0084,-32.02375 -3.8044,-34.86373 -1.5801,-49.63184 1.4425,-61.73948 z"
             id="path3055"
             inkscape:connector-curvature="0"
             sodipodi:nodetypes="ccccc" />
          <path
             style="fill:#2a7fff;fill-opacity:1;stroke:#1d3d2e;stroke-width:1.29139936px;stroke-linecap:butt;stroke-linejoin:miter;stroke-opacity:0"
             d="m 1321.6484,528.67392 c 50.0535,12.10337 91.4276,6.75058 94.0023,6.17804 -8.2114,22.84342 -19.6381,41.46187 -36.3019,58.15796 -7.087,-0.80428 -41.729,1.14012 -74.4336,-11.54009 7.4461,-20.01673 12.7798,-37.2603 16.7332,-52.79591 z"
             id="path3057"
             inkscape:connector-curvature="0"
             sodipodi:nodetypes="ccccc" />
          <path
             style="fill:#2a7fff;fill-opacity:1;stroke:#1d3d2e;stroke-width:1.29139936px;stroke-linecap:butt;stroke-linejoin:miter;stroke-opacity:0"
             d="m 1421.7237,534.22547 c 13.3177,-0.40521 38.3485,-4.24658 59.0438,-12.98861 -9.8756,28.89938 -46.8355,64.69071 -63.3364,70.33055 l -29.7157,1.15401 c 15.0583,-17.8228 25.9691,-32.41647 34.0083,-58.49595 z"
             id="path3059"
             inkscape:connector-curvature="0"
             sodipodi:nodetypes="ccccc" />
          <path
             style="fill:#2a7fff;fill-opacity:1;stroke:#1d3d2e;stroke-width:1.29139936px;stroke-linecap:butt;stroke-linejoin:miter;stroke-opacity:0"
             d="m 1191.016,510.6398 c 12.8047,14.33868 21.2624,27.06503 44.4551,44.45508 -0.479,10.595 0.7127,17.07003 4.3967,26.37995 -22.1716,-13.7936 -44.8693,-57.12716 -48.8518,-70.83503 z"
             id="path3061"
             inkscape:connector-curvature="0"
             sodipodi:nodetypes="cccc" />
          <path
             style="fill:#2a7fff;fill-opacity:1;stroke:#1d3d2e;stroke-width:1.29139936px;stroke-linecap:butt;stroke-linejoin:miter;stroke-opacity:0"
             d="m 1240.112,557.78173 c 24.0578,17.76521 40.2239,23.2678 57.8893,28.82252 -2.3309,5.21086 -4.5483,13.84134 -7.0834,20.762 -17.9183,-2.60937 -38.5039,-13.96751 -46.165,-20.02922 -1.1536,-4.34511 -2.2243,-7.52953 -4.6409,-29.5553 z"
             id="path3063"
             inkscape:connector-curvature="0"
             sodipodi:nodetypes="ccccc" />
          <path
             style="fill:#2a7fff;fill-opacity:1;stroke:#1d3d2e;stroke-width:1.29139936px;stroke-linecap:butt;stroke-linejoin:miter;stroke-opacity:0"
             d="m 1303.8635,588.06981 c -2.2797,8.36864 -5.0479,14.09513 -7.3278,21.25051 20.8316,6.27917 40.199,10.44366 55.2026,8.30479 9.8446,-4.88517 18.2425,-13.18996 21.739,-19.78495 -8.5843,0.48155 -33.4775,1.26064 -69.6138,-9.77035 z"
             id="path3065"
             inkscape:connector-curvature="0"
             sodipodi:nodetypes="ccccc" />
          <path
             style="fill:#000080;stroke:#1d3d2e;stroke-width:1.29139936px;stroke-linecap:butt;stroke-linejoin:miter;stroke-opacity:0"
             d="m 1383.9804,597.10738 c 7.3329,0.89342 18.7102,0.0536 30.5323,-0.97703 -11.8307,8.44092 -26.4791,16.36949 -52.5156,22.22754 12.3722,-12.07099 20.6764,-18.29194 21.9833,-21.25051 z"
             id="path3067"
             inkscape:connector-curvature="0"
             sodipodi:nodetypes="cccc" />
          <path
             style="fill:none;stroke:#1d3d2e;stroke-width:1.29139936px;stroke-linecap:butt;stroke-linejoin:miter;stroke-opacity:0"
             d="m 1188.4769,526.73293 c -81.7812,-234.55614 260.404,-321.36867 313.0232,-96.74046"
             id="path3114-1"
             inkscape:connector-curvature="0"
             sodipodi:nodetypes="cc" />
          <path
             transform="matrix(1.933304,0,0,1.933304,924.42645,159.05555)"
             inkscape:connector-curvature="0"
             id="path3048"
             d="m 233.19335,231.74012 4.25574,-4.30061 6.71805,-0.38989 c 3.69493,-0.21445 6.82642,-0.28767 6.95888,-0.16272 0.54187,0.51116 -7.17768,4.49086 -13.03567,6.72035 -9.26484,3.52611 -9.96847,3.25783 -4.897,-1.86713 z"
             style="fill:#2a7fff;fill-opacity:1" />
          <path
             transform="matrix(1.933304,0,0,1.933304,924.42645,159.05555)"
             inkscape:connector-curvature="0"
             id="path3050"
             d="m 226.49373,237.44609 c 0.0322,-0.0296 0.50783,-0.48352 1.05702,-1.00872 1.40849,-1.34696 2.96149,-2.78571 4.95272,-4.58837 3.97326,-3.597 4.55655,-4.17933 5.19237,-5.18384 0.036,-0.0569 0.0925,-0.0577 0.57914,-0.007 0.29657,0.0306 0.98855,0.0739 1.53774,0.0963 2.73277,0.11111 5.73061,-0.0115 11.25689,-0.46051 1.22659,-0.0997 2.24561,-0.17571 2.26448,-0.16902 0.0593,0.021 -1.69911,1.22425 -2.97687,2.03694 -2.60294,1.65553 -5.5892,3.23327 -8.50091,4.49131 -4.19258,1.81145 -8.81745,3.30541 -14.20009,4.58702 -0.60102,0.14311 -1.12161,0.26019 -1.15687,0.26019 -0.0561,0 -0.0568,-0.007 -0.006,-0.0538 z m 5.151,-1.61975 c 1.777,-0.41732 6.40331,-2.10395 9.71213,-3.54077 4.78478,-2.07776 9.4221,-4.55836 9.76648,-5.22431 0.0564,-0.10912 0.0562,-0.12429 -0.002,-0.16692 -0.24114,-0.17633 -3.28701,-0.0778 -10.42135,0.33727 l -3.2667,0.19003 -2.26587,2.29317 c -2.62968,2.66137 -3.33653,3.39121 -3.87835,4.0045 -0.79264,0.8972 -1.24192,1.58546 -1.24192,1.90254 0,0.15636 0.0661,0.24397 0.24047,0.31859 0.16022,0.0686 0.81299,0.0137 1.35718,-0.1141 z"
             style="fill:#2a7fff;fill-opacity:1" />
          <g
             transform="matrix(0.45961129,0,0,0.49023359,490.18734,-17.081576)"
             style="fill:#000000"
             id="g3169">
            <path
               sodipodi:nodetypes="ccccc"
               inkscape:connector-curvature="0"
               id="path3096"
               d="m 1703.5373,939.5604 -19.0488,0 c 25.9856,37.13509 44.4906,75.2429 64.5694,115.0288 l 19.4267,-3.0539 c -24.7372,-32.5272 -29.8346,-77.51351 -64.9473,-111.9749 z"
               style="fill:#000000;fill-opacity:1" />
            <g
               style="fill:#000000"
               id="g3142">
              <path
                 transform="matrix(1.933304,0,0,1.933304,849.65494,-253.42918)"
                 d="m 442.30817,600.65857 c 0,7.18471 -5.82436,13.00906 -13.00907,13.00906 -7.1847,0 -13.00906,-5.82435 -13.00906,-13.00906 0,-7.18471 5.82436,-13.00906 13.00906,-13.00906 7.18471,0 13.00907,5.82435 13.00907,13.00906 z"
                 sodipodi:ry="13.009064"
                 sodipodi:rx="13.009064"
                 sodipodi:cy="600.65857"
                 sodipodi:cx="429.2991"
                 id="path3058"
                 style="fill:#000000;fill-opacity:1"
                 sodipodi:type="arc" />
              <g
                 style="fill:#000000"
                 transform="matrix(0.8345985,0,0,1,58.332966,-74.978854)"
                 id="g3076">
                <path
                   style="fill:#000000;fill-opacity:1"
                   d="m 1916.1236,1012.5467 49.8663,0 c 5.926,0 10.6967,7.7337 10.6967,10.6967 0,2.963 10.9215,33.1539 0,62.01 -10.9215,28.8561 0,47.938 0,47.938 0,5.926 -4.7707,10.6967 -10.6967,10.6967 l -49.8663,0 c -5.926,0 -10.6967,-4.7707 -10.6967,-10.6967 0,0 12.4817,-23.3775 0,-47.938 -9.3646,-18.4269 0,-62.01 0,-62.01 0,-5.926 4.7707,-10.6967 10.6967,-10.6967 z"
                   id="rect3060"
                   inkscape:connector-curvature="0"
                   sodipodi:nodetypes="sszzsssssss" />
                <path
                   style="fill:#000000;fill-opacity:1"
                   d="m 1894.1256,1135.7653 c 20.9178,-22.6164 75.7653,-22.6164 96.6832,0 20.9177,22.6164 -9.3362,87.3721 -9.3362,87.3721 l -80.3511,0 c 0,0 -27.9136,-64.7557 -6.9959,-87.3721 z"
                   id="rect3065"
                   inkscape:connector-curvature="0"
                   sodipodi:nodetypes="zzccz" />
              </g>
              <path
                 sodipodi:nodetypes="cczcccc"
                 inkscape:connector-curvature="0"
                 id="rect3082"
                 d="m 1652.5839,939.57459 21.377,0 c 0,0 -53.873,76.82781 -54.034,79.90941 -0.1609,3.0816 34.6929,35.1194 34.6929,35.1194 l -13.2333,11.7064 c 0,0 -41.0414,-26.1813 -42.4924,-47.3348 -3.8136,-9.5618 30.3117,-59.72364 53.6898,-79.40041 z"
                 style="fill:#000000;fill-opacity:1" />
              <path
                 sodipodi:nodetypes="cccscc"
                 inkscape:connector-curvature="0"
                 id="rect3100"
                 d="m 1689.6917,1141.3518 16.3561,0 3.7173,88.0197 c 0,0 -0.8375,9.815 -7.4509,10.3551 -8.4491,0.6902 -8.1618,-9.6648 -8.1618,-9.6648 z"
                 style="fill:#000000;fill-opacity:1" />
              <path
                 style="fill:#000000;fill-opacity:1"
                 d="m 1670.8575,1142.0953 -18.7791,0 -4.268,88.0197 c 0,0 0.9617,9.815 8.5547,10.3551 9.7008,0.6902 9.3709,-9.6648 9.3709,-9.6648 z"
                 id="path3103"
                 inkscape:connector-curvature="0"
                 sodipodi:nodetypes="cccscc" />
            </g>
          </g>
          <g
             transform="matrix(0.45961129,0,0,0.49023359,490.18734,-17.081576)"
             style="fill:#000000"
             id="g3161">
            <path
               sodipodi:type="arc"
               style="fill:#000000;fill-opacity:1"
               id="path3125"
               sodipodi:cx="429.2991"
               sodipodi:cy="600.65857"
               sodipodi:rx="13.009064"
               sodipodi:ry="13.009064"
               d="m 442.30817,600.65857 c 0,7.18471 -5.82436,13.00906 -13.00907,13.00906 -7.1847,0 -13.00906,-5.82435 -13.00906,-13.00906 0,-7.18471 5.82436,-13.00906 13.00906,-13.00906 7.18471,0 13.00907,5.82435 13.00907,13.00906 z"
               transform="matrix(1.1151132,0,0,1.1151132,1554.2867,349.69652)" />
            <path
               sodipodi:nodetypes="ccccccc"
               inkscape:connector-curvature="0"
               id="path3127"
               d="m 2008.0796,1035.531 48.5605,0 -5.9462,70.3632 5.9462,55.4977 -48.5605,0 5.9462,-53.5156 z"
               style="fill:#000000;fill-opacity:1" />
            <path
               style="fill:#000000;fill-opacity:1"
               d="m 2038.2007,1154.0421 9.434,0 2.1441,50.769 c 0,0 -0.483,5.6612 -4.2976,5.9727 -4.8734,0.3981 -4.7076,-5.5745 -4.7076,-5.5745 z"
               id="path3129"
               inkscape:connector-curvature="0"
               sodipodi:nodetypes="cccscc" />
            <path
               sodipodi:nodetypes="cccscc"
               inkscape:connector-curvature="0"
               id="path3131"
               d="m 2027.3373,1154.4709 -10.8317,0 -2.4617,50.769 c 0,0 0.5547,5.6613 4.9343,5.9728 5.5953,0.3981 5.405,-5.5746 5.405,-5.5746 z"
               style="fill:#000000;fill-opacity:1" />
            <path
               sodipodi:nodetypes="ccccccsc"
               inkscape:connector-curvature="0"
               id="path3133"
               d="m 2008.1014,1035.5048 10.1391,0 c -8.757,17.4198 -17.1112,29.156 -26.6457,38.451 -20.4317,0.2537 -27.273,-1.3537 -35.552,-11.0035 l 0.9488,-5.4706 8.7715,-1.9224 c 19.0205,7.4872 16.4997,7.1844 20.0609,3.0528 10.3053,-11.9559 14.3644,-21.7931 22.2774,-23.1073 z"
               style="fill:#000000;fill-opacity:1" />
            <path
               style="fill:#000000;fill-opacity:1"
               d="m 2056.661,1035.4996 -9.6797,0 c 13.2047,27.5137 22.6082,55.7482 32.8113,85.226 l 9.8718,-2.2628 c -12.5703,-24.0996 -15.1606,-57.4305 -33.0034,-82.9632 z"
               id="path3135"
               inkscape:connector-curvature="0"
               sodipodi:nodetypes="ccccc" />
          </g>
          <g
             transform="matrix(0.45961129,0,0,0.49023359,490.18734,-17.081576)"
             style="fill:#000000"
             id="g3180">
            <path
               transform="matrix(1.933304,0,0,1.933304,909.10875,154.26877)"
               style="fill:#000000;fill-opacity:1"
               d="m 451.61488,494.52866 c 0,9.16181 -4.93658,12.13219 -11.63701,12.13219 -6.70042,0 -12.13219,-1.48481 -12.13219,-10.64662 0,-9.16181 5.43177,-22.53122 12.13219,-22.53122 6.70043,0 11.63701,11.88384 11.63701,21.04565 z"
               id="path3137"
               inkscape:connector-curvature="0"
               sodipodi:nodetypes="sssss" />
            <g
               style="fill:#000000"
               id="g3151">
              <path
                 sodipodi:type="arc"
                 style="fill:#000000;fill-opacity:1"
                 id="path3105"
                 sodipodi:cx="429.2991"
                 sodipodi:cy="600.65857"
                 sodipodi:rx="13.009064"
                 sodipodi:ry="13.009064"
                 d="m 442.30817,600.65857 c 0,7.18471 -5.82436,13.00906 -13.00907,13.00906 -7.1847,0 -13.00906,-5.82435 -13.00906,-13.00906 0,-7.18471 5.82436,-13.00906 13.00906,-13.00906 7.18471,0 13.00907,5.82435 13.00907,13.00906 z"
                 transform="matrix(1.933304,0,0,1.933304,1037.9974,-277.21981)" />
              <path
                 sodipodi:nodetypes="ccccccc"
                 inkscape:connector-curvature="0"
                 id="rect3107"
                 d="m 1832.2837,866.96832 70.8914,0 6.0747,3.86299 -6.0747,4.06722 -70.8914,0 -5.3153,-3.91536 z"
                 style="fill:#000000;fill-opacity:1" />
              <path
                 sodipodi:nodetypes="ccccccc"
                 inkscape:connector-curvature="0"
                 id="rect3110"
                 d="m 1824.7513,911.8313 84.1907,0 -10.3091,121.9906 10.3091,96.2179 -84.1907,0 10.3091,-92.7815 z"
                 style="fill:#000000;fill-opacity:1" />
              <path
                 style="fill:#000000;fill-opacity:1"
                 d="m 1876.973,1117.2973 16.3561,0 3.7173,108.5708 c 0,0 -0.8375,12.1066 -7.4509,12.7728 -8.4491,0.8514 -8.1618,-11.9213 -8.1618,-11.9213 z"
                 id="path3112"
                 inkscape:connector-curvature="0"
                 sodipodi:nodetypes="cccscc" />
              <path
                 sodipodi:nodetypes="cccscc"
                 inkscape:connector-curvature="0"
                 id="path3114"
                 d="m 1858.1388,1118.0408 -18.7791,0 -4.268,110.2834 c 0,0 0.9617,12.2976 8.5547,12.9743 9.7008,0.8648 9.3709,-12.1094 9.3709,-12.1094 z"
                 style="fill:#000000;fill-opacity:1" />
              <path
                 sodipodi:nodetypes="ccscccc"
                 inkscape:connector-curvature="0"
                 id="path3121"
                 d="m 1824.789,911.78572 17.5785,0 c -17.1768,34.16874 -30.8118,68.97859 -43.9756,104.76258 -5.2136,14.1724 -17.5334,27.3008 -27.0981,37.9701 l -8.1143,-9.4278 c 7.4489,-13.6339 14.6435,-18.4411 19.8249,-34.4574 10.6974,-33.06703 19.9554,-69.02526 41.7846,-98.84748 z"
                 style="fill:#000000;fill-opacity:1" />
              <path
                 style="fill:#000000;fill-opacity:1"
                 d="m 1908.9783,911.77671 -16.7821,0 c 22.8934,47.70139 39.1965,96.65229 56.886,147.75879 l 17.115,-3.923 c -21.7936,-41.7823 -26.2844,-99.56887 -57.2189,-143.83579 z"
                 id="path3123"
                 inkscape:connector-curvature="0"
                 sodipodi:nodetypes="ccccc" />
              <path
                 transform="matrix(1.7845883,0,0,1.933304,985.18175,154.26877)"
                 d="m 440.72067,468.28351 c 0,4.23904 -2.88217,7.67547 -6.4375,7.67547 -3.55533,0 -6.43749,-3.43643 -6.43749,-7.67547 0,-4.23905 2.88216,-7.67547 6.43749,-7.67547 3.55533,0 6.4375,3.43642 6.4375,7.67547 z"
                 sodipodi:ry="7.6754723"
                 sodipodi:rx="6.4374928"
                 sodipodi:cy="468.28351"
                 sodipodi:cx="434.28317"
                 id="path3139"
                 style="fill:#000000;fill-opacity:1"
                 sodipodi:type="arc" />
            </g>
          </g>
        </g>
      </g>
    </g>
  </g>
</svg>
